<?xml version="1.0" standalone="no"?>
<!DOCTYPE svg PUBLIC "-//W3C//DTD SVG 20010904//EN"
 "http://www.w3.org/TR/2001/REC-SVG-20010904/DTD/svg10.dtd">
<svg version="1.0" xmlns="http://www.w3.org/2000/svg"
 width="512.000000pt" height="512.000000pt" viewBox="0 0 512.000000 512.000000"
 preserveAspectRatio="xMidYMid meet">
<metadata>
Created by potrace 1.14, written by Peter Selinger 2001-2017
</metadata>
<g transform="translate(0.000000,512.000000) scale(0.100000,-0.100000)"
fill="#000000" stroke="none">
<path d="M2499 4822 c-14 -9 -189 -156 -389 -327 -200 -170 -411 -350 -470
-400 -114 -96 -216 -184 -234 -200 -6 -6 -85 -73 -176 -150 -164 -138 -287
-244 -345 -294 -16 -14 -73 -62 -125 -106 -52 -44 -97 -82 -100 -85 -3 -3 -63
-55 -135 -115 -72 -60 -143 -122 -160 -136 -27 -24 -114 -98 -255 -218 -78
-66 -90 -79 -101 -108 -25 -67 28 -143 100 -143 37 0 82 25 136 76 11 11 33
29 48 41 15 12 54 44 85 71 31 28 95 83 142 122 47 40 99 84 115 99 17 14 73
62 125 105 52 44 100 84 105 90 6 6 37 34 70 61 33 28 107 91 165 140 58 50
161 137 230 195 68 58 131 112 140 120 8 8 56 49 105 90 93 78 140 118 159
135 6 6 54 46 106 90 52 44 97 82 100 85 3 3 32 28 65 55 33 28 62 52 65 55 3
3 34 30 70 60 36 30 70 60 76 65 6 6 35 31 65 56 30 26 97 83 149 128 52 46
105 87 116 93 20 9 44 -9 225 -164 112 -95 236 -200 274 -232 39 -33 97 -83
130 -112 33 -28 157 -134 275 -234 118 -100 238 -202 265 -225 138 -118 435
-371 474 -404 24 -20 49 -41 55 -46 12 -11 192 -165 272 -232 48 -41 75 -63
124 -106 115 -99 290 -246 310 -260 13 -9 42 -17 64 -17 31 0 45 7 72 35 27
29 32 41 30 74 -2 21 -9 47 -17 58 -12 17 -132 122 -379 332 -30 25 -91 78
-135 116 -45 39 -163 140 -263 225 l-182 155 0 543 c0 485 -2 548 -16 579 -33
68 -34 68 -367 68 l-299 0 -34 -37 -34 -38 0 -235 c0 -136 -4 -235 -9 -235 -5
0 -11 3 -13 8 -1 4 -59 54 -128 112 -69 57 -127 107 -130 110 -3 3 -48 41
-100 85 -104 88 -98 83 -255 217 -60 52 -121 102 -135 111 -32 22 -88 22 -121
-1z"/>
<path d="M2509 4195 c-15 -8 -44 -30 -65 -49 -22 -18 -106 -91 -189 -161 -82
-70 -175 -149 -205 -175 -111 -96 -428 -366 -475 -405 -27 -22 -54 -45 -60
-52 -7 -6 -47 -41 -91 -78 -43 -37 -101 -86 -129 -110 -27 -23 -120 -102 -205
-175 -85 -73 -180 -154 -210 -180 -30 -26 -122 -105 -205 -175 -82 -70 -158
-137 -167 -149 -10 -12 -18 -38 -18 -63 0 -71 75 -126 139 -101 24 8 61 37
136 102 17 14 32 26 35 26 3 0 5 -467 5 -1037 0 -820 3 -1044 13 -1069 7 -16
27 -39 45 -49 31 -19 80 -19 1692 -19 1811 0 1694 -4 1739 57 20 27 20 36 21
1066 0 572 2 1042 5 1045 3 3 35 -20 70 -51 81 -70 115 -85 163 -72 63 17 96
94 65 152 -14 27 -12 25 -133 127 -55 47 -102 87 -105 90 -3 3 -63 55 -135
116 -71 60 -143 121 -160 135 -50 45 -947 811 -1175 1005 -14 12 -50 43 -80
69 -239 206 -256 216 -321 180z"/>
</g>
</svg>
